<svg xmlns="http://www.w3.org/2000/svg" viewBox="0 0 21.71 21.71"><defs><style>.cls-1{fill:#3d5b99;}.cls-2{fill:#a2b1cd;}.cls-3{fill:#e7ebf2;}.cls-4{fill:#a6b5d0;}.cls-5{fill:#fff;fill-rule:evenodd;}</style></defs><title>Asset 2</title><g id="Layer_2" data-name="Layer 2"><g id="Layer_1-2" data-name="Layer 1"><path class="cls-1" d="M21.71,10.85A10.86,10.86,0,1,1,10.86,0,10.86,10.86,0,0,1,21.71,10.85Z"/><path class="cls-2" d="M10.67,11.47c0-.05,0-.1,0-.15a2.06,2.06,0,0,1,.14-1l.15.14c.34.28.05.64.13,1h-.4Z"/><path class="cls-3" d="M11.13,10.67l-.21.53c-.1-.18-.61-.37,0-.56Z"/><path class="cls-4" d="M10.68,10.37H11c.05.14.09.28.13.42-.14.09,0,.18,0,.27l-.14.15c-.11,0-.13.15-.14.27C10.54,11.14,10.73,10.74,10.68,10.37Z"/><path class="cls-5" d="M9.09,11v6.65a.18.18,0,0,0,.17.17h2.47a.18.18,0,0,0,.18-.17V10.87H13.7a.17.17,0,0,0,.17-.16l.17-2a.17.17,0,0,0-.17-.18h-2V7a.61.61,0,0,1,.61-.61H13.9a.17.17,0,0,0,.17-.17v-2a.17.17,0,0,0-.17-.17H11.57A2.48,2.48,0,0,0,9.09,6.52v2H7.86a.18.18,0,0,0-.18.17v2a.18.18,0,0,0,.18.17H9.09Z"/></g></g></svg>