<svg xmlns="http://www.w3.org/2000/svg" viewBox="0 0 21.71 21.71"><defs><style>.cls-1{fill:#55b948;}.cls-2{fill:#fff;}</style></defs><title>Asset 3</title><g id="Layer_2" data-name="Layer 2"><g id="Layer_1-2" data-name="Layer 1"><path class="cls-1" d="M21.71,10.85A10.86,10.86,0,1,1,10.86,0,10.86,10.86,0,0,1,21.71,10.85Z"/><path class="cls-2" d="M10.88,4.1c4,0,7.22,2.58,7.22,5.78a5,5,0,0,1-1.07,3l-.14.17h0a5.83,5.83,0,0,1-.79.78c-2,1.85-5.28,4.05-5.71,3.71s.62-1.74-.53-2l-.24,0h0c-3.39-.48-6-2.85-6-5.69C3.66,6.68,6.9,4.1,10.88,4.1Z"/><path class="cls-1" d="M6.7,11.72H8.15a.38.38,0,0,0,.38-.37v0a.38.38,0,0,0-.38-.37H7.1V8.55a.38.38,0,0,0-.37-.37h0a.38.38,0,0,0-.38.37v2.8a.38.38,0,0,0,.38.37Zm9-1.75v0a.38.38,0,0,0-.38-.38H14.29V9h1.05a.38.38,0,0,0,.38-.38v0a.38.38,0,0,0-.38-.38H13.89a.38.38,0,0,0-.38.38v2.79a.38.38,0,0,0,.38.38h1.45a.38.38,0,0,0,.38-.38v0a.37.37,0,0,0-.38-.37H14.29v-.6h1.05a.38.38,0,0,0,.38-.38Zm-2.8,1.64h0a.36.36,0,0,0,.11-.26V8.55a.38.38,0,0,0-.38-.37h0a.38.38,0,0,0-.38.37v1.64L10.88,8.37a.36.36,0,0,0-.33-.19h0a.38.38,0,0,0-.37.37v2.8a.38.38,0,0,0,.37.37h0a.38.38,0,0,0,.38-.37V9.68l1.37,1.87,0,0h0a.31.31,0,0,0,.15.1.32.32,0,0,0,.14,0h0a.39.39,0,0,0,.18,0,.31.31,0,0,0,.09-.07Zm-3.71.11h0a.38.38,0,0,0,.38-.37V8.55a.38.38,0,0,0-.38-.37h0a.38.38,0,0,0-.38.37v2.8A.38.38,0,0,0,9.21,11.72Z"/></g></g></svg>