<svg xmlns="http://www.w3.org/2000/svg" xmlns:xlink="http://www.w3.org/1999/xlink" viewBox="0 0 21.71 21.71"><defs><style>.cls-1{fill:none;}.cls-2{fill:#fff;}.cls-3{clip-path:url(#clip-path);}.cls-4{fill:url(#linear-gradient);}.cls-5{clip-path:url(#clip-path-2);}</style><clipPath id="clip-path"><path class="cls-1" d="M4.24,10.39a6.13,6.13,0,0,0,2.39,4.82v2.33l2.26-1.18a6.7,6.7,0,0,0,2,.29,6.45,6.45,0,0,0,6.61-6.26,6.44,6.44,0,0,0-6.61-6.26,6.44,6.44,0,0,0-6.62,6.26"/></clipPath><linearGradient id="linear-gradient" x1="-514.81" y1="-1885.25" x2="-514.75" y2="-1885.25" gradientTransform="matrix(0, 233.08, 233.08, 0, 439420.79, 119994.84)" gradientUnits="userSpaceOnUse"><stop offset="0" stop-color="#39c1f1"/><stop offset="1" stop-color="#426eb5"/></linearGradient><clipPath id="clip-path-2"><rect class="cls-1" x="2.81" y="2.88" width="16.09" height="15.92"/></clipPath></defs><title>Asset 4</title><g id="Layer_2" data-name="Layer 2"><g id="Layer_1-2" data-name="Layer 1"><path class="cls-2" d="M21.71,10.86A10.86,10.86,0,1,1,10.86,0,10.85,10.85,0,0,1,21.71,10.86Z"/><g class="cls-3"><rect class="cls-4" x="4.24" y="4.13" width="13.23" height="13.41"/></g><g class="cls-5"><polygon class="cls-2" points="6.4 12.46 9.76 10.66 11.49 12.52 15.08 8.57 11.73 10.36 9.99 8.63 6.4 12.46"/></g></g></g></svg>