<svg xmlns="http://www.w3.org/2000/svg" viewBox="0 0 21.71 21.71"><defs><style>.cls-1{fill:#358743;}.cls-2{fill:#fff;fill-rule:evenodd;}</style></defs><title>Asset 1</title><g id="Layer_2" data-name="Layer 2"><g id="Layer_1-2" data-name="Layer 1"><path class="cls-1" d="M21.71,10.86A10.86,10.86,0,1,1,10.86,0,10.85,10.85,0,0,1,21.71,10.86Z"/><path class="cls-2" d="M10.86,3.93a6.94,6.94,0,0,0-6.93,6.93A6.83,6.83,0,0,0,5,14.61L4,16.93a.62.62,0,0,0,.09.64.6.6,0,0,0,.46.21.41.41,0,0,0,.16,0l2.9-.8a6.92,6.92,0,1,0,3.27-13Zm0,12.64A5.68,5.68,0,0,1,8,15.79a.68.68,0,0,0-.31-.08l-.16,0-1.89.52.66-1.45a.61.61,0,0,0-.06-.6,5.72,5.72,0,1,1,4.64,2.37Z"/><path class="cls-2" d="M13.52,11.89a1.19,1.19,0,0,0-1-.22c-.26.1-.43.51-.6.72a.25.25,0,0,1-.33.07,4.62,4.62,0,0,1-2.28-2,.28.28,0,0,1,0-.38,1.6,1.6,0,0,0,.41-.68,1.48,1.48,0,0,0-.18-.79A1.89,1.89,0,0,0,9,7.77a.82.82,0,0,0-.88.13,1.79,1.79,0,0,0-.61,1.41,2.3,2.3,0,0,0,0,.45,3.89,3.89,0,0,0,.43,1,8,8,0,0,0,.45.68,6.79,6.79,0,0,0,1.94,1.8,6.11,6.11,0,0,0,1.21.58A2.71,2.71,0,0,0,13,14a1.69,1.69,0,0,0,1.27-.95.73.73,0,0,0,.06-.48C14.24,12.25,13.79,12.05,13.52,11.89Z"/></g></g></svg>