<?xml version="1.0" ?><!DOCTYPE svg  PUBLIC '-//W3C//DTD SVG 1.1//EN'  'http://www.w3.org/Graphics/SVG/1.1/DTD/svg11.dtd'><svg enable-background="new 0 0 100 100" height="100px" id="Layer_1" version="1.1" viewBox="0 0 100 100" width="100px" xml:space="preserve" xmlns="http://www.w3.org/2000/svg" xmlns:xlink="http://www.w3.org/1999/xlink"><g><circle cx="50" cy="50" fill="#31C139" r="45"/><path clip-rule="evenodd" d="M49.995,29.885c5.371,0.047,10.31,1.455,14.604,4.771   c2.895,2.234,5.039,5.031,5.999,8.625c1.126,4.211,0.32,8.088-2.089,11.672c-1.713,2.547-3.98,4.553-6.318,6.488   C58.43,64.553,54.397,67.26,50.1,69.57c-0.378,0.201-0.776,0.385-1.188,0.5c-0.674,0.191-1.15-0.25-1.031-0.939   c0.058-0.334,0.229-0.646,0.299-0.979c0.213-1.02,0.463-2.035,0.581-3.066c0.088-0.785-0.326-1.131-1.12-1.205   c-4.877-0.453-9.303-2.066-13.056-5.271c-3.238-2.766-5.264-6.244-5.628-10.541c-0.316-3.715,0.788-7.059,3.046-10.002   c3.068-4.002,7.221-6.305,12.048-7.494C46.001,30.092,47.982,29.867,49.995,29.885z M49.656,45.881   c0.15,0.186,0.218,0.262,0.278,0.344c1.283,1.738,2.564,3.479,3.853,5.217c0.385,0.518,0.872,0.709,1.353,0.557   c0.485-0.154,0.769-0.559,0.77-1.182c0.004-2.705,0.002-5.412-0.009-8.119c-0.003-0.67-0.489-1.16-1.104-1.164   c-0.623-0.006-1.099,0.512-1.1,1.209c-0.004,1.48-0.003,2.959-0.008,4.441c0,0.127-0.025,0.256-0.048,0.477   c-0.14-0.178-0.219-0.273-0.291-0.371c-1.251-1.697-2.498-3.396-3.751-5.092c-0.435-0.586-0.85-0.764-1.375-0.604   c-0.539,0.166-0.781,0.574-0.784,1.324c-0.008,2.6-0.017,5.197-0.019,7.797c0,0.811,0.435,1.311,1.112,1.318   c0.691,0.008,1.126-0.471,1.134-1.285c0.008-0.994-0.008-1.986-0.012-2.979C49.654,47.184,49.656,46.594,49.656,45.881z    M59.609,43.758c0.956,0,1.889,0.006,2.82-0.002c0.778-0.006,1.279-0.432,1.293-1.076c0.014-0.688-0.479-1.154-1.271-1.16   c-1.264-0.01-2.525-0.01-3.788,0.002c-0.9,0.008-1.304,0.428-1.312,1.342c-0.008,0.795-0.004,1.588-0.005,2.381   c-0.003,1.84-0.013,3.682-0.007,5.521c0.004,0.859,0.413,1.262,1.258,1.266c1.336,0.004,2.67-0.004,4.006,0.004   c0.54,0.004,0.899-0.266,1.082-0.738c0.271-0.705-0.301-1.459-1.111-1.475c-0.987-0.018-1.975-0.004-2.975-0.004   c0-0.666,0-1.268,0-1.914c1.003,0,1.973,0.006,2.942-0.002c0.687-0.006,1.162-0.447,1.186-1.072   c0.021-0.648-0.453-1.119-1.169-1.146c-0.306-0.012-0.612-0.004-0.919-0.004c-0.677,0-1.354,0-2.03,0   C59.609,45.004,59.609,44.414,59.609,43.758z M38.528,49.83c0-0.275,0-0.488,0-0.701c-0.004-2.109,0-4.219-0.016-6.326   c-0.006-0.781-0.456-1.264-1.111-1.26c-0.652,0.006-1.094,0.502-1.096,1.279c-0.01,2.648-0.014,5.299-0.009,7.949   c0.003,0.848,0.428,1.258,1.272,1.26c1.28,0.004,2.56,0.004,3.839,0c0.773,0,1.271-0.426,1.279-1.084   c0.007-0.658-0.524-1.113-1.313-1.117C40.457,49.828,39.54,49.83,38.528,49.83z M43.677,46.76c-0.006,0-0.01,0-0.015,0   c0,1.334-0.006,2.668,0.002,4.002c0.005,0.762,0.446,1.256,1.106,1.26c0.665,0.006,1.113-0.473,1.113-1.242   c-0.002-2.686-0.012-5.369-0.032-8.055c-0.002-0.223-0.057-0.475-0.172-0.664c-0.274-0.449-0.708-0.588-1.215-0.455   c-0.488,0.127-0.781,0.545-0.786,1.154C43.669,44.092,43.677,45.426,43.677,46.76z" fill="#FFFFFF" fill-rule="evenodd"/></g></svg>