<svg xmlns="http://www.w3.org/2000/svg" viewBox="0 0 115.63 75.81"><defs><style>.cls-1{fill:#fff;}</style></defs><title>Asset 1</title><g id="Layer_2" data-name="Layer 2"><g id="Layer_1-2" data-name="Layer 1"><path class="cls-1" d="M57.81,0A24.23,24.23,0,1,0,82.07,24.24,24.28,24.28,0,0,0,57.81,0ZM40.39,36A21,21,0,0,1,69.59,6.83L68,8.44A21.52,21.52,0,0,0,57.42,6C51.1,6,43.76,9.38,43.76,16.34a4.7,4.7,0,0,0,4.81,4.77,6,6,0,0,0,3.48-1A2.85,2.85,0,0,0,50.38,15a2.77,2.77,0,0,0-1.45.4c-.36-.27-.52-.51-.52-1.25,0-2.88,4.27-5.52,8.75-5.52,3.75,0,6.17,1.25,7.61,3.06Zm17.42,9.24A21,21,0,0,1,41.7,37.72L65.87,13.58a9.85,9.85,0,0,1,.64,3.57c0,5.52-11.2,8.86-10,16.54h2.32c.68-2.91,2.75-5.07,5.62-7.37,0,0,8.09-4.44,8.75-8.25a8.64,8.64,0,0,0-3.44-8.4l1.53-1.53a21,21,0,0,1-13.51,37.1Z"/><path class="cls-1" d="M57.76,38.31a2,2,0,1,0-1.95-2A1.95,1.95,0,0,0,57.76,38.31Z"/><path class="cls-1" d="M45.42,35.56l-.35.35.54.52-1.17,1.22-.55-.52-.34.36,2.23,2.15.35-.36-1-.91.3-.32.7.68c1.21,1.17,1.84,1,2,.8.35-.38.07-1.2-.71-2Zm2.06,3.22c-.17.18-.51,0-1.14-.58l-.52-.5.54-.56.72.7C47.32,38.07,47.7,38.56,47.48,38.78Z"/><path class="cls-1" d="M52.86,41.73c.46.08,1,0,1.16-.37,0-.09.13-.75-1.3-1.2l-2.94-.92-.15.46.72.23-.52,1.61-.71-.22-.15.47,2.38.75.15-.47-.67-.21.17-.58.64.22A2.54,2.54,0,0,1,52.75,43l1.36.42.11-.38-.63-.19A3.39,3.39,0,0,0,52.86,41.73Zm-.92-.66-.79-.25.18-.58,1.06.34c.62.19.65.38.61.49S52.51,41.25,51.94,41.07Z"/><path class="cls-1" d="M58.41,40.85c-1.58,0-2.61.65-2.61,1.42s1,1.42,2.61,1.42S61,43,61,42.27,60,40.85,58.41,40.85Zm0,2.34c-1,0-1.52-.43-1.52-.92s.54-.94,1.52-.94,1.52.44,1.52.94S59.38,43.19,58.41,43.19Z"/><path class="cls-1" d="M66.73,40.24c.25-.22.35-.45.27-.66-.13-.38-.93-.43-1.81-.13l-2.91,1,.16.47.7-.26.57,1.6-.71.25.17.47,3-1.06c1.17-.42,1.7-1,1.56-1.36S67.24,40.18,66.73,40.24Zm-2.61.12,1-.37c.35-.12.79-.21.86,0s-.18.35-.68.53l-1,.37Zm1.76,1.17L64.69,42l-.23-.62.76-.26c1.15-.41,1.44-.32,1.49-.17S66.22,41.41,65.88,41.53Z"/><polygon class="cls-1" points="71.9 35.78 72.39 36.43 70.97 37.84 69.77 36.64 70.57 35.85 70.22 35.5 68.06 37.64 68.41 37.99 69.04 37.36 70.23 38.56 69.6 39.19 69.95 39.54 73.43 36.09 72.62 35.08 71.9 35.78"/><polygon class="cls-1" points="40.67 27.49 41.16 27.48 41.14 24.95 40.64 24.95 40.66 25.9 39.18 25.9 39.18 25.89 41.13 23.74 41.12 21.83 40.62 21.84 40.63 22.41 38.93 22.42 38.93 21.86 38.44 21.86 38.45 24.43 38.95 24.42 38.94 23.45 40.39 23.44 40.39 23.46 38.41 25.65 38.43 26.94 40.67 26.92 40.67 27.49"/><path class="cls-1" d="M40,28.18c-.7.3-.89,1.52-.27,2.95S41.31,33.27,42,33s.9-1.52.28-3S40.66,27.88,40,28.18ZM41.58,32c-.46.19-1.07-.14-1.45-1s-.21-1.58.25-1.77,1.07.13,1.46,1S42,31.78,41.58,32Z"/><polygon class="cls-1" points="75.28 29.91 75.74 30.16 74.89 32.2 74.28 31.95 74.58 31.22 74.84 31.32 75.21 30.43 74.24 30.03 73.86 30.92 74.13 31.04 73.82 31.76 73.32 31.55 74.13 29.58 74.64 29.71 75.01 28.8 74.06 28.47 72.18 33.01 72.64 33.2 72.92 32.51 74.49 33.15 74.2 33.85 74.66 34.03 76.58 29.41 75.65 29.03 75.28 29.91"/><polygon class="cls-1" points="77.13 23.69 77.17 21.3 76.68 21.3 76.67 21.81 74.97 21.77 74.98 21.26 74.49 21.25 74.45 23.24 75.78 24.1 74.41 24.9 74.36 26.89 74.87 26.9 74.87 26.39 76.57 26.43 76.56 26.94 77.05 26.95 77.11 24.57 76.61 24.55 76.59 25.39 74.91 25.35 74.91 25.34 76.45 24.46 76.47 23.77 74.97 22.83 74.97 22.8 76.64 22.84 76.63 23.68 77.13 23.69"/><path class="cls-1" d="M74.1,20.41h-.29V20.3c0-.07,0-.13,0-.15s.08-.07.17-.07h.1v-.13h-.16l-.12,0a.21.21,0,0,0-.07.14.23.23,0,0,0,0-.11.16.16,0,0,0-.15-.08.18.18,0,0,0-.19.11.61.61,0,0,0,0,.22v.26h.76Zm-.39,0h-.28v-.12a.4.4,0,0,1,0-.16.12.12,0,0,1,.12-.06.12.12,0,0,1,.11.08.39.39,0,0,1,0,.13Z"/><path class="cls-1" d="M73.73,21a.73.73,0,0,0,.49-.19.69.69,0,0,0,.2-.5.68.68,0,0,0-.2-.5.71.71,0,0,0-1,0,.71.71,0,0,0-.19.5.69.69,0,0,0,.19.49A.7.7,0,0,0,73.73,21Zm-.43-1.12a.58.58,0,0,1,.43-.18.56.56,0,0,1,.42.18.57.57,0,0,1,.17.43.6.6,0,0,1-.17.43.63.63,0,0,1-.42.16.6.6,0,0,1-.61-.59A.62.62,0,0,1,73.3,19.83Z"/><path class="cls-1" d="M19.21,71.76h-2v4H16v-4H14V70.57h5.23Z"/><path class="cls-1" d="M24.86,75.79H23.65v-2H20.83v2H19.62V70.57h1.21v2h2.82v-2h1.21Z"/><path class="cls-1" d="M30.1,75.79H26.87a1.62,1.62,0,0,1-1.6-1.6v-2a1.62,1.62,0,0,1,1.6-1.6H30v1.19H26.87a.35.35,0,0,0-.37.29,2.86,2.86,0,0,0,0,.52H29.9v1.21H26.48v.41a.41.41,0,0,0,.12.27.39.39,0,0,0,.27.12H30.1Z"/><path class="cls-1" d="M41.58,74.19A1.64,1.64,0,0,1,40,75.79h-4V70.57h3.93A1.58,1.58,0,0,1,41,71a1.53,1.53,0,0,1,.49,1.13,1.58,1.58,0,0,1-.34,1A1.59,1.59,0,0,1,41.58,74.19Zm-1.22,0a.42.42,0,0,0-.11-.29.4.4,0,0,0-.29-.12H37.13v.8H40a.41.41,0,0,0,.28-.11A.38.38,0,0,0,40.36,74.19Zm0-2a.38.38,0,0,0-.12-.29.38.38,0,0,0-.28-.12H37.14v.81h2.77a.4.4,0,0,0,.29-.12A.39.39,0,0,0,40.31,72.17Z"/><path class="cls-1" d="M46.8,75.79H43.58A1.62,1.62,0,0,1,42,74.19v-2a1.62,1.62,0,0,1,1.61-1.6h3.17v1.19H43.58a.35.35,0,0,0-.38.29,3.6,3.6,0,0,0,0,.52H46.6v1.21H43.17v.41a.43.43,0,0,0,.13.27.39.39,0,0,0,.28.12H46.8Z"/><path class="cls-1" d="M53.24,71.76H48.81a.38.38,0,0,0-.29.12.42.42,0,0,0-.11.29q0,.42,1,.42c.14,0,.38,0,.73,0l.8,0a3.48,3.48,0,0,1,1.6.29,1.42,1.42,0,0,1,.71,1.36,1.54,1.54,0,0,1-.47,1.12,1.56,1.56,0,0,1-1.14.49H47.2V74.58h4.4a.39.39,0,0,0,.28-.11.35.35,0,0,0,.13-.28c0-.29-.32-.44-1-.44l-.73,0H49.5a3.51,3.51,0,0,1-1.59-.28,1.39,1.39,0,0,1-.71-1.34A1.54,1.54,0,0,1,47.68,71a1.56,1.56,0,0,1,1.13-.47h4.43Z"/><path class="cls-1" d="M58.88,71.76h-2v4H55.66v-4h-2V70.57h5.24Z"/><path class="cls-1" d="M70,71.76H68v4H66.74v-4h-2V70.57H70Z"/><path class="cls-1" d="M81.84,71.76H77.41a.4.4,0,0,0-.29.12.42.42,0,0,0-.11.29q0,.42,1,.42c.13,0,.38,0,.73,0l.8,0a3.51,3.51,0,0,1,1.6.29,1.42,1.42,0,0,1,.71,1.36,1.66,1.66,0,0,1-1.61,1.61H75.79V74.58H80.2a.44.44,0,0,0,.29-.11.41.41,0,0,0,.11-.28c0-.29-.31-.44-1-.44l-.73,0H78.1a3.51,3.51,0,0,1-1.59-.28,1.39,1.39,0,0,1-.71-1.34A1.54,1.54,0,0,1,76.28,71a1.56,1.56,0,0,1,1.13-.47h4.43Z"/><path class="cls-1" d="M87.48,75.79H86.27v-2H83.45v2h-1.2V70.57h1.2v2h2.82v-2h1.21Z"/><path class="cls-1" d="M89.53,75.79h-1.2V70.57h1.2Z"/><path class="cls-1" d="M96,75.79H94.8s0-.14,0-.38,0-.44,0-.6c0-.69-.13-1-.4-1H91.58v2H90.37V70.57h3.95a1.56,1.56,0,0,1,1.12.47,1.49,1.49,0,0,1,.49,1.13,1.74,1.74,0,0,1-.3,1,1.53,1.53,0,0,1,.39,1Zm-1.27-3.62a.38.38,0,0,0-.12-.29.37.37,0,0,0-.27-.12H91.58v.81h2.78a.38.38,0,0,0,.28-.12A.39.39,0,0,0,94.75,72.17Z"/><path class="cls-1" d="M101.64,71.76h-2v4H98.42v-4h-2V70.57h5.23Z"/><rect class="cls-1" x="70.47" y="72.77" width="4.06" height="1.62"/><path class="cls-1" d="M21.88,56H16.56a3.09,3.09,0,0,0-3,3v3.8A2.94,2.94,0,0,0,14.43,65a2.9,2.9,0,0,0,2.13.9h5.32a3.07,3.07,0,0,0,3-3V59a3.07,3.07,0,0,0-3-3Zm.77,6.83a.74.74,0,0,1-.23.54.7.7,0,0,1-.54.22H16.56a.72.72,0,0,1-.52-.24.7.7,0,0,1-.24-.52V59a.68.68,0,0,1,.26-.49.74.74,0,0,1,.5-.27h5.32a.83.83,0,0,1,.77.76Z"/><path class="cls-1" d="M42.39,56h-7.6v9.87h2.28v-3.8h5.32a2.72,2.72,0,0,0,3.06-3,3,3,0,0,0-.92-2.15A2.91,2.91,0,0,0,42.39,56Zm.54,3.55a.76.76,0,0,1-.54.23H37.07V58.26h5.32a.79.79,0,0,1,.54.22.76.76,0,0,1,0,1.07Z"/><path class="cls-1" d="M56.68,59a2.88,2.88,0,0,0-.92-2.14,2.93,2.93,0,0,0-2.14-.9H46.19v9.87h2.28v-3.8h5.44c.49,0,.74.35.74,1.06v2.74h2.2v-3a2.84,2.84,0,0,0-.75-2A3.26,3.26,0,0,0,56.68,59Zm-2.44.52a.73.73,0,0,1-.54.22H48.47V58.26H53.7a.77.77,0,0,1,.53.22.74.74,0,0,1,.23.54A.72.72,0,0,1,54.24,59.56Z"/><path class="cls-1" d="M66,56H60.63a3,3,0,0,0-2.14.9,3,3,0,0,0-.9,2.14v3.8a3.07,3.07,0,0,0,3,3H66a3.07,3.07,0,0,0,3-3V59a3.07,3.07,0,0,0-3-3Zm.75,6.83a.76.76,0,0,1-.21.54.73.73,0,0,1-.54.22H60.63a.74.74,0,0,1-.53-.24.73.73,0,0,1-.23-.52V59a1,1,0,0,1,.76-.76H66a.72.72,0,0,1,.52.24.73.73,0,0,1,.23.52Z"/><path class="cls-1" d="M80.24,59a2.86,2.86,0,0,0-.9-2.14A3,3,0,0,0,77.2,56H69.76v9.87h7.61a2.93,2.93,0,0,0,2.14-.9,2.9,2.9,0,0,0,.91-2.13,3,3,0,0,0-.8-2A2.9,2.9,0,0,0,80.24,59ZM72,58.26h5.24a.76.76,0,0,1,.52.22A.74.74,0,0,1,78,59a.72.72,0,0,1-.22.54.69.69,0,0,1-.53.22H72Zm5.86,5.11a.73.73,0,0,1-.53.22H72V62.07h5.34a.77.77,0,0,1,.54.22.73.73,0,0,1,.22.54A.7.7,0,0,1,77.9,63.37Z"/><path class="cls-1" d="M83.68,63.33c-.26-.25-.23-.79-.23-1.62V56H81.17v6.84a3.07,3.07,0,0,0,3,3h6.09V63.59H85.38C84.51,63.59,83.94,63.58,83.68,63.33Z"/><path class="cls-1" d="M91.94,56.9A3,3,0,0,0,91.05,59v3.8a3.06,3.06,0,0,0,3,3h6.08V63.59H94.09a.72.72,0,0,1-.53-.24.7.7,0,0,1-.24-.52v-.76h6.47V59.78H93.32a5.71,5.71,0,0,1,.05-1,.67.67,0,0,1,.72-.54h6.08V56H94.09A3,3,0,0,0,91.94,56.9Z"/><path class="cls-1" d="M10.25,62.83a.74.74,0,0,1-.05.33.28.28,0,0,1-.27.12.83.83,0,0,1-.36-.08,1.32,1.32,0,0,1-.34-.3L4.5,56.6a3.38,3.38,0,0,0-.76-.54,3.16,3.16,0,0,0-1.32-.23A2.83,2.83,0,0,0,1.28,56a2.36,2.36,0,0,0-.75.51,2.53,2.53,0,0,0-.41.59,1.42,1.42,0,0,0-.12.43v8.3H2.28V58.45a.23.23,0,0,1,.13-.23.4.4,0,0,1,.24-.09.51.51,0,0,1,.3.08,1.22,1.22,0,0,1,.34.31L8,64.91a3.16,3.16,0,0,0,.89.75,3.09,3.09,0,0,0,1.28.21,2.48,2.48,0,0,0,1.38-.35,2.25,2.25,0,0,0,.79-.81,1.75,1.75,0,0,0,.24-.8V56H10.25Z"/><path class="cls-1" d="M113.5,56A2.51,2.51,0,0,0,111,57.43c-.51.87-2.11,4.24-2.74,5.59-.63-1.35-2.24-4.72-2.75-5.59A2.49,2.49,0,0,0,103.06,56c-2.13,0-2.13,1.46-2.13,2.16v7.72h2.28V59.39c0-.61.41-.71.75-.13s3.33,6.61,3.33,6.61h2s2.9-5.91,3.32-6.61.76-.48.76.13v6.49h2.28V58.16C115.63,57.46,115.63,56,113.5,56Z"/></g></g></svg>